<svg xml:space="preserve" style="enable-background:new 0 0 800 800;" viewBox="0 0 800 800" y="0px" x="0px" xmlns:xlink="http://www.w3.org/1999/xlink" xmlns="http://www.w3.org/2000/svg" id="图层_1" version="1.1">
<style type="text/css">
	.st0{fill:#FBFBFB;}
	.st1{fill:#3791BE;}
	.st2{fill:#BCBCBC;}
</style>
<g>
	<path d="M714.55,449.54c-9.23-12.67-22.32-26.97-32.56-38.34c-8.92-9.91-18.14-19.57-27.78-28.79
		c-12.89-12.33-26.53-23.95-41.3-33.99c-7.64-5.19-29.27-12.65-29.85-23.54c-0.82-15.42,15.27-27.64,22.15-39.97
		c5.47-9.81,2.3-12.27-5.91-19.46c-7.27-6.37-15.39-11.73-23.79-16.47c-9.62-5.43-19.18-11.08-29.15-15.83
		c-18.09-8.62-31.7,43.38-37.09,54.32c-17.03-3.23-32.76-11.34-50.1-13.65c-2.98-21.96,13.27-44.66,8.75-66.6
		c-3.18-15.45-37.91-16.12-50.3-17.16c-20.78-1.75-43.06-0.96-62.59,7.1c-14.91,6.15,5.46,75.37-0.8,76.76
		c-17.34,3.85-34.22,9.23-51.32,13.99c-7.02-16.97-12.22-34.62-19.12-51.6c-1.65-5.84-8.58-6.15-13.27-4.1
		c-23.03,9.32-44.63,22.16-63.78,38.04c-11.46,8.88,2.3,22.74,5.59,32.95c23.41,35.7,9.94,26.06-14.73,53.37
		c-44.69,35.19-85.14,76.65-112.95,126.63c-7.57,15.11,81.38,61.82,95.6,72.83c153.89,93.44,357.75,61.78,490.94-54.24
		C680.69,494.83,723.52,461.85,714.55,449.54z M639,469.08c-1.2,6.7-7.88,10-14.98,14.97c-18,12.61-38.16,21.69-57.42,32.13
		c-25.98,14.08-52.86,26.59-80.8,36.29c-54.67,18.98-114.22,26.98-170.82,14.89c-45.68-9.76-87.61-32.04-128.03-55.45
		c-11.73-6.79-23.56-13.83-32.83-23.72c-2.81-3-5.53-6.82-4.81-10.87c0.46-2.57,2.23-4.67,3.95-6.63
		c31.17-35.47,68.12-65.86,108.95-89.6c52.08-30.28,112.59-49.88,172.39-42.59c45.75,5.58,88.25,26.42,127.68,50.28
		c22.31,13.5,44.3,28.35,61.03,48.35c6.02,7.2,13.15,16.36,15.36,25.7C639.25,465.24,639.33,467.28,639,469.08z" class="st2"></path>
	<circle r="85.75" cy="460.35" cx="394.86" class="st2"></circle>
</g>
</svg>
